<?xml version="1.0" encoding="utf-8"?>
<!-- Generator: Adobe Illustrator 19.0.0, SVG Export Plug-In . SVG Version: 6.00 Build 0)  -->
<svg version="1.1" id="Layer_1" xmlns="http://www.w3.org/2000/svg" xmlns:xlink="http://www.w3.org/1999/xlink" x="0px" y="0px"
	 viewBox="-280 372 50 50" style="enable-background:new -280 372 50 50;" xml:space="preserve">
<style type="text/css">
	.st0{fill:#181A1B;}
</style>
<path class="st0" d="M-255,374.9c-12.2,0-22.1,9.9-22.1,22.1c0,3.7,0.9,7.2,2.5,10.2l0.4-1h5.7l-0.7,1.8h-4.9
	c0.1,0.2,0.2,0.3,0.3,0.5h4.4l-0.1,0.3h-4.1c3.9,6.2,10.8,10.3,18.6,10.3c12.2,0,22.1-9.9,22.1-22.1S-242.8,374.9-255,374.9z
	 M-260.9,387.7h0.3c0.5,0,0.9,0,1.4,0.1c0.5,0.1,0.9,0.2,1.3,0.4h-5.9C-262.8,387.9-261.8,387.7-260.9,387.7z M-266.9,390.3
	c0.2-0.2,0.3-0.3,0.5-0.5h9.9l0.5,0.9h-11.3C-267.2,390.6-267.1,390.4-266.9,390.3z M-268.1,392.1h12.9l0.6,1.1h-14L-268.1,392.1z
	 M-268.1,405.6h-5.7l0.7-1.7h5.7L-268.1,405.6z M-267.1,403.1h-5.7l0.7-1.6h5.7L-267.1,403.1z M-266,400.6h-5.8l0.6-1.5h5.7
	L-266,400.6z M-265,398.2h-5.7l0.6-1.3h5.7L-265,398.2z M-263.9,395.7h-5.7l0.5-1.2h5.7L-263.9,395.7z M-262.3,394.5h8.4l0.6,1.2
	h-8.4L-262.3,394.5z M-261.1,396.8h8.4l0.8,1.3h-8.5L-261.1,396.8z M-259.7,399.2h8.5l0.8,1.5h-8.4L-259.7,399.2z M-252,408.8
	c-0.8,0-1.3-0.1-1.7-0.3h3.8C-250.4,408.7-251.1,408.8-252,408.8z M-248.4,408h-6.2c-0.6-0.4-1-1-1.3-1.9h10.1
	C-246.4,407-247.3,407.6-248.4,408z M-244.6,404.5c-0.2,0.4-0.4,0.8-0.6,1h-10.9l-1-1.7h12.8L-244.6,404.5z M-244,403.1h-13.5
	l-0.9-1.6h8.4l0.6,1l0.4-1h5.7L-244,403.1z M-242.9,400.6h-5.7l0.6-1.5h5.7L-242.9,400.6z M-241.9,398.2h-5.7l0.6-1.3h5.7
	L-241.9,398.2z M-240.8,395.7h-5.7l0.5-1.2h5.7L-240.8,395.7z M-239.8,393.2h-5.7l0.4-1.1h5.7L-239.8,393.2z M-238.7,390.8h-5.7
	l0.4-0.9h5.7L-238.7,390.8z M-243.4,388.3l0.2-0.6h5.7l-0.2,0.6H-243.4z"/>
</svg>
